# AST/ASF file generated using VICON BodyLanguage
# -----------------------------------------------
:version 1.10
:name VICON
:units
  mass 1.0
  length 0.45
  angle deg
:documentation
   .ast/.asf automatically generated from VICON data using
   VICON BodyBuilder and BodyLanguage model FoxedUp or BRILLIANT.MOD
:root
   order TX TY TZ RX RY RZ
   axis XYZ
   position 0 0 0  
   orientation 0 0 0 
:bonedata
  begin
     id 1 
     name lhipjoint
     direction 0.588788 -0.725889 0.355548 
     length 2.37778 
     axis 0 0 0  XYZ
  end
  begin
     id 2 
     name lfemur
     direction 0.34202 -0.939693 0  
     length 6.86393  
     axis 0 0 20  XYZ
    dof rx ry rz
    limits (-160.0 20.0)
           (-70.0 70.0)
           (-60.0 70.0)
  end
  begin
     id 3 
     name ltibia
     direction 0.34202 -0.939693 0   
     length 7.32851   
     axis 0 0 20   XYZ
    dof rx
    limits (-10.0 170.0)
  end
  begin
     id 4 
     name lfoot
     direction 0.0626533 -0.172138 0.983078   
     length 1.98929   
     axis -90 7.62852e-016 20   XYZ
    dof rx rz
    limits (-45.0 90.0)
           (-70.0 20.0)
  end
  begin
     id 5 
     name ltoes
     direction 1.53647e-011 -4.21734e-011 1   
     length 1.00479   
     axis -90 7.62852e-016 20   XYZ
    dof rx
    limits (-90.0 20.0)
  end
  begin
     id 6 
     name rhipjoint
     direction -0.59141 -0.724168 0.354705   
     length 2.38343  
     axis 0 0 0  XYZ 
  end
  begin
     id 7 
     name rfemur
     direction -0.34202 -0.939693 0   
     length 6.95589   
     axis 0 0 -20   XYZ
    dof rx ry rz
    limits (-160.0 20.0)
           (-70.0 70.0)
           (-70.0 60.0)
  end
  begin
     id 8 
     name rtibia
     direction -0.34202 -0.939693 0   
     length 7.32327   
     axis 0 0 -20   XYZ
    dof rx
    limits (-10.0 170.0)
 end
 begin
     id 9 
     name rfoot
     direction -0.0660461 -0.18146 0.981178   
     length 1.85272  
     axis -90 -7.62852e-016 -20   XYZ
    dof rx rz
    limits (-45.0 90.0)
           (-20.0 70.0)
  end
  begin
     id 10 
     name rtoes
     direction -1.53586e-011 -4.21988e-011 1   
     length 0.93746   
     axis -90 -7.62852e-016 -20   XYZ
    dof rx
    limits (-90.0 20.0)
  end
  begin
     id 11 
     name lowerback
     direction -0.0107982 0.991059 0.13299   
     length 1.98691   
     axis 0 0 0   XYZ
    dof rx ry rz
    limits (-20.0 45.0)
           (-30.0 30.0)
           (-30.0 30.0)
  end
  begin
     id 12 
     name upperback
     direction 0.0076296 0.999916 0.0104576   
     length 1.99501   
     axis 0 0 0   XYZ
    dof rx ry rz
    limits (-20.0 45.0)
           (-30.0 30.0)
           (-30.0 30.0)
  end
  begin
     id 13 
     name thorax
     direction 0.01176 0.998615 -0.0512909   
     length 2.03144   
     axis 0 0 0   XYZ
    dof rx ry rz
    limits (-20.0 45.0)
           (-30.0 30.0)
           (-30.0 30.0)
  end
  begin
     id 14 
     name lowerneck
     direction -0.0171909 0.999644 0.0204011   
     length 1.71818   
     axis 0 0 0   XYZ
    dof rx ry rz
    limits (-20.0 45.0)
           (-30.0 30.0)
           (-30.0 30.0)
  end
  begin
     id 15 
     name upperneck
     direction 0.0250902 0.997482 -0.0663316   
     length 1.66199   
     axis 0 0 0   XYZ
    dof rx ry rz
    limits (-20.0 45.0)
           (-30.0 30.0)
           (-30.0 30.0)
  end
  begin
     id 16
     name head
     direction 0.00881535 0.99956 -0.0283365  
     length 1.81545  
     axis 0 0 0   XYZ
    dof rx ry rz
    limits (-20.0 45.0)
           (-30.0 30.0)
           (-30.0 30.0)
  end
  begin
     id 17 
     name lclavicle
     direction 0.840411 0.486876 -0.238035  
     length 3.30409  
     axis 0 0 0   XYZ
    dof ry rz
    limits (-20.0 10.0)
           (0.0 20.0)
  end
  begin
     id 18 
     name lhumerus
     direction 1 -4.48977e-011 -5.16239e-027   
     length 4.62672   
     axis 180 -30 -90   XYZ
    dof rx ry rz
    limits (-60.0 90.0)
           (-90.0 90.0)
           (-90.0 90.0)
  end
  begin
     id 19
     name lradius
     direction 1 -4.48977e-011 -8.71171e-027   
     length 3.11018   
     axis 180 -30 -90   XYZ
    dof rx
    limits (-10.0 170.0)
  end
  begin
     id 20
     name lwrist
     direction 1 -4.48912e-011 -1.03764e-026   
     length 1.55509   
     axis 9.09556e-015 90 90   XYZ
    dof ry
    limits (-180.0 0.0)
 end
  begin
     id 21 
     name lhand
     direction 1 -4.49072e-011 -2.07528e-026   
     length 0.743834   
     axis 1.3242e-014 90 90   XYZ
    dof rx rz
    limits (-90.0 90.0)
           (-45.0 45.0)
  end
  begin
     id 22 
     name lfingers
     direction 1 -4.48909e-011 -4.15056e-026   
     length 0.599698   
     axis 2.64841e-014 90 90   XYZ
    dof rx
    limits (0.0 90.0)
  end
  begin
     id 23
     name lthumb
     direction 0.707107 -6.35013e-011 0.707107   
     length 0.86105   
     axis -90 45 2.85299e-015   XYZ
    dof rx rz
    limits (-45.0 45.0)
           (-45.0 45.0)
  end
  begin
     id 24 
     name rclavicle
     direction -0.835208 0.500237 -0.228452   
     length 3.2716  
     axis 0 0 0   XYZ 
    dof ry rz
    limits (-10.0 20.0)
           (-20.0 0.0)
  end
  begin
     id 25 
     name rhumerus
     direction -1 -4.48978e-011 -5.1953e-028  
     length 4.55919   
     axis 180 30 90   XYZ
    dof rx ry rz
    limits (-90.0 60.0)
           (-90.0 90.0)
           (-90.0 90.0)
  end
  begin
     id 26 
     name rradius
     direction -1 -4.48961e-011 -5.99546e-027   
     length 3.22748   
     axis 180 30 90   XYZ
    dof rx
    limits (-10.0 170.0)
  end
  begin
     id 27 
     name rwrist
     direction -1 -4.48986e-011 -1.03764e-026   
     length 1.61374   
     axis 9.09556e-015 -90 -90   XYZ
    dof ry
    limits (-180.0 0.0)
  end
  begin
     id 28
     name rhand
     direction -1 -4.4899e-011 -2.07528e-026   
     length 0.700882   
     axis 1.3242e-014 -90 -90   XYZ
    dof rx rz
    limits (-90.0 90.0)
           (-45.0 45.0)
  end
  begin
     id 29
     name rfingers
     direction -1 -4.48991e-011 -4.15056e-026   
     length 0.565069   
     axis 2.64841e-014 -90 -90   XYZ
    dof rx
    limits (0.0 90.0)
  end
  begin
     id 30
     name rthumb
     direction -0.707107 -6.34804e-011 0.707107   
     length 0.811329   
     axis -90 -45 -2.85299e-015   XYZ
    dof rx rz
    limits (-45.0 45.0)
           (-45.0 45.0)
  end
:hierarchy
  begin
    root lhipjoint rhipjoint lowerback
    lhipjoint lfemur
    lfemur ltibia
    ltibia lfoot
    lfoot ltoes
    rhipjoint rfemur
    rfemur rtibia
    rtibia rfoot
    rfoot rtoes
    lowerback upperback
    upperback thorax
    thorax lowerneck lclavicle rclavicle
    lowerneck upperneck
    upperneck head
    lclavicle lhumerus
    lhumerus lradius
    lradius lwrist
    lwrist lhand lthumb
    lhand lfingers
    rclavicle rhumerus
    rhumerus rradius
    rradius rwrist
    rwrist rhand rthumb
    rhand rfingers
  end

#!OML:ASF F:\VICON\USERDATA\INSTALL\SteveWalk\SteveWalk.ASF
:FULLY-SPECIFIED
:DEGREES
174
root -0.472436 16.278 -6.80631 20.184 -5.47729 -1.38227
lowerback -16.9727 2.21687 1.15621
upperback -5.05389 2.64482 1.35913
thorax 4.08814 1.30864 1.31122
lowerneck -3.57853 -0.332928 0.860426
upperneck 6.28786 -0.305304 -2.92759
head 2.60916 -0.223141 -1.09697
rclavicle 2.96065e-014 1.43125e-014
rhumerus -13.9958 9.61541 -82.5664
rradius 60.9488
rwrist -20.7099
rhand -16.3013 -34.3902
rfingers 7.12502
rthumb 9.90944 -64.137
lclavicle 2.96065e-014 1.43125e-014
lhumerus -65.1263 20.7302 63.0442
lradius 13.0356
lwrist -32.3554
lhand -10.9931 -16.8827
lfingers 7.12502
lthumb 15.0272 12.552
rfemur -9.17444 -8.70952 23.5135
rtibia 23.7417
rfoot -24.1779 16.8074
rtoes -4.45643
lfemur -49.8887 8.78567 -25.2706
ltibia 10.8732
lfoot -9.41594 -2.94495
ltoes 1.80488
175
root -0.472409 16.2411 -6.58887 20.2138 -6.2031 -1.21942
lowerback -16.9017 2.42541 0.747238
upperback -5.08161 2.99801 1.18632
thorax 4.00559 1.48258 1.42604
lowerneck -3.99751 -0.385193 0.858348
upperneck 6.69368 -0.371629 -2.85444
head 2.82228 -0.259273 -1.08255
rclavicle -2.6749e-014 -1.70955e-014
rhumerus -13.58 9.71653 -82.3471
rradius 61.5534
rwrist -20.4226
rhand -16.6147 -34.0501
rfingers 7.12502
rthumb 9.60711 -63.811
lclavicle -2.6749e-014 -1.70955e-014
lhumerus -66.0655 20.7057 61.9915
lradius 12.7959
lwrist -32.9765
lhand -11.5506 -16.9284
lfingers 7.12502
lthumb 14.49 12.5456
rfemur -8.42324 -8.05863 22.8623
rtibia 23.7096
rfoot -23.8603 16.7773
rtoes -8.05094
lfemur -49.3226 8.70196 -25.3899
ltibia 8.49907
lfoot -10.2222 -2.62213
ltoes 2.43137
176
root -0.468608 16.2104 -6.36577 20.2768 -6.64334 -1.06877
lowerback -16.9222 2.55082 0.45736
upperback -5.1274 3.22062 1.00165
thorax 3.95939 1.59208 1.43842
lowerneck -3.99768 -0.386316 0.92458
upperneck 6.64754 -0.387839 -2.72265
head 2.80605 -0.260944 -1.05146
rclavicle 1.69961e-014 1.11319e-014
rhumerus -13.3862 9.86734 -82.18
rradius 62.2144
rwrist -20.071
rhand -16.8862 -33.702
rfingers 7.12502
rthumb 9.34513 -63.4749
lclavicle 1.69961e-014 1.11319e-014
lhumerus -66.9806 20.8058 60.7049
lradius 12.5259
lwrist -33.5259
lhand -11.4585 -16.6548
lfingers 7.12502
lthumb 14.5788 12.8128
rfemur -7.6096 -7.62474 22.2838
rtibia 23.5066
rfoot -23.1902 16.8309
rtoes -11.3901
lfemur -49.0854 8.37843 -25.3778
ltibia 7.20469
lfoot -9.86963 -2.34971
ltoes -2.04136
177
root -0.463181 16.188 -6.1284 20.2848 -6.94374 -1.06009
lowerback -17.1853 2.65806 0.370318
upperback -5.09885 3.37845 0.873249
thorax 4.12911 1.66774 1.39807
lowerneck -3.85559 -0.356129 0.971275
upperneck 6.59836 -0.360269 -2.59063
head 2.76303 -0.240497 -1.01426
rclavicle -9.19379e-015 2.78299e-015
rhumerus -13.3809 9.84496 -82.0925
rradius 62.9558
rwrist -19.7444
rhand -17.2339 -32.7069
rfingers 7.12502
rthumb 9.00962 -62.4945
lclavicle -9.19379e-015 2.78299e-015
lhumerus -68.083 20.953 59.2161
lradius 12.3383
lwrist -34.6487
lhand -11.4509 -17.1167
lfingers 7.12502
lthumb 14.5861 12.3505
rfemur -6.73227 -7.14262 21.8856
rtibia 23.4742
rfoot -23.0131 16.8275
rtoes -13.4041
lfemur -48.5722 8.09108 -25.0791
ltibia 6.27789
lfoot -7.93836 -2.70548
ltoes -7.06451
178
root -0.46003 16.1706 -5.88892 20.226 -6.98049 -1.2428
lowerback -17.2684 2.73417 0.491562
upperback -5.0981 3.45972 0.814321
thorax 4.18327 1.70726 1.28867
lowerneck -3.97255 -0.400628 0.933766
upperneck 6.79218 -0.423249 -2.46155
head 2.84877 -0.270022 -0.97082
rclavicle 3.59303e-014 7.95139e-015
rhumerus -13.46 9.76799 -81.9551
rradius 63.6469
rwrist -19.7699
rhand -17.376 -32.9658
rfingers 7.12502
rthumb 8.87252 -62.7593
lclavicle 3.59303e-014 7.95139e-015
lhumerus -69.2409 21.1705 57.4215
lradius 12.0809
lwrist -36.2293
lhand -11.4252 -17.4829
lfingers 7.12502
lthumb 14.6108 11.9824
rfemur -5.74994 -6.65765 21.8344
rtibia 23.3811
rfoot -22.854 16.7427
rtoes -14.7315
lfemur -48.47 7.7723 -24.3754
ltibia 6.96032
lfoot -7.35964 -3.56025
ltoes -0.205987
179
root -0.456791 16.1139 -5.64901 20.0633 -6.91544 -1.17222
lowerback -17.1822 2.692 0.318622
upperback -5.07987 3.44179 0.687856
thorax 4.15535 1.6982 1.24516
lowerneck -4.07048 -0.436772 1.01368
upperneck 6.78449 -0.486607 -2.33652
head 2.86315 -0.295705 -0.947225
rclavicle -4.83295e-015 3.97569e-015
rhumerus -13.5354 9.75888 -81.904
rradius 64.0822
rwrist -19.6628
rhand -17.4087 -31.6412
rfingers 7.12502
rthumb 8.84092 -61.436
lclavicle -4.83295e-015 3.97569e-015
lhumerus -70.2173 21.6111 55.2968
lradius 11.7024
lwrist -37.7196
lhand -10.6334 -16.7965
lfingers 7.12502
lthumb 15.3736 12.6119
rfemur -4.71801 -6.63921 21.515
rtibia 23.3372
rfoot -22.2418 16.6587
rtoes -18.3286
lfemur -49.1568 7.01107 -24.0877
ltibia 8.967
lfoot -8.53835 -2.31268
ltoes -9.87698
180
root -0.454607 16.0854 -5.39961 19.8566 -7.02137 -0.989501
lowerback -17.1772 2.67042 -0.0181814
upperback -5.02107 3.47835 0.54162
thorax 4.2041 1.71482 1.28965
lowerneck -4.08363 -0.428381 1.06963
upperneck 6.67314 -0.493494 -2.16157
head 2.8275 -0.291446 -0.899632
rclavicle -6.06293e-015 -1.35174e-014
rhumerus -13.7766 9.77078 -81.8497
rradius 64.5903
rwrist -19.6393
rhand -17.382 -31.5916
rfingers 7.12502
rthumb 8.86677 -61.3853
lclavicle -6.06293e-015 -1.35174e-014
lhumerus -71.6526 22.6781 51.6482
lradius 11.0933
lwrist -40.781
lhand -10.6096 -17.3438
lfingers 7.12502
lthumb 15.3965 12.0629
rfemur -3.67231 -6.60972 20.9205
rtibia 23.4674
rfoot -20.551 17.8027
rtoes -16.4976
lfemur -49.4031 6.3843 -23.9565
ltibia 11.0617
lfoot -8.85888 -2.12632
ltoes -3.69138
181
root -0.45165 16.0468 -5.1404 19.5774 -6.9537 -1.03619
lowerback -17.25 2.68014 -0.12706
upperback -4.88573 3.51078 0.517953
thorax 4.38086 1.72855 1.341
lowerneck -4.13521 -0.425073 0.805937
upperneck 6.65289 -0.497942 -1.78664
head 2.82965 -0.287798 -0.732801
rclavicle -2.67179e-014 -1.23246e-014
rhumerus -14.0932 9.70566 -81.6433
rradius 65.0238
rwrist -19.7311
rhand -17.0564 -31.584
rfingers 7.12502
rthumb 9.18093 -61.3641
lclavicle -2.67179e-014 -1.23246e-014
lhumerus -73.6379 24.2155 46.5218
lradius 10.4122
lwrist -45.6249
lhand -10.6881 -17.794
lfingers 7.12502
lthumb 15.3209 11.6185
rfemur -2.55059 -6.26724 20.658
rtibia 23.8399
rfoot -19.8119 17.9311
rtoes -18.1843
lfemur -49.2455 5.42176 -23.2762
ltibia 13.158
lfoot -8.93928 -0.586065
ltoes -4.68374
182
root -0.44442 16.0009 -4.88125 19.2927 -6.65863 -1.09642
lowerback -17.3253 2.65338 -0.186681
upperback -4.73382 3.48664 0.510391
thorax 4.57978 1.71421 1.37083
lowerneck -4.48891 -0.46192 0.404004
upperneck 6.89348 -0.552572 -1.29139
head 2.97757 -0.309884 -0.508793
rclavicle -5.90142e-016 -1.78906e-015
rhumerus -14.6004 9.45647 -81.4439
rradius 65.4198
rwrist -19.7163
rhand -16.9243 -30.7999
rfingers 7.12502
rthumb 9.3084 -60.5744
lclavicle -5.90142e-016 -1.78906e-015
lhumerus -75.4506 25.386 42.0193
lradius 10.0561
lwrist -49.9584
lhand -10.5552 -17.9263
lfingers 7.12502
lthumb 15.4489 11.4764
rfemur -1.36953 -5.93707 20.536
rtibia 24.0396
rfoot -18.5856 17.9532
rtoes -18.5381
lfemur -49.5798 4.42775 -22.685
ltibia 15.969
lfoot -8.06742 0.517177
ltoes -7.51345
183
root -0.441627 15.975 -4.62364 19.1587 -6.55074 -0.976752
lowerback -17.2948 2.59297 -0.574663
upperback -4.82268 3.47821 0.442069
thorax 4.45052 1.71026 1.51062
lowerneck -4.9495 -0.47887 0.180052
upperneck 7.3715 -0.582754 -0.918979
head 3.22974 -0.319287 -0.355302
rclavicle -4.10925e-014 -1.31198e-014
rhumerus -15.6287 9.27318 -81.4332
rradius 65.8838
rwrist -19.7631
rhand -17.1265 -30.0175
rfingers 7.12502
rthumb 9.11325 -59.8006
lclavicle -4.10925e-014 -1.31198e-014
lhumerus -75.9188 25.4656 41.0883
lradius 9.69695
lwrist -50.8253
lhand -10.7645 -18.0444
lfingers 7.12502
lthumb 15.2473 11.3737
rfemur -0.506422 -5.55372 20.2074
rtibia 24.3004
rfoot -16.3368 18.4557
rtoes -14.881
lfemur -50.2223 4.19532 -23.0754
ltibia 18.7132
lfoot -5.96642 1.03228
ltoes -22.2459
184
root -0.447101 15.9664 -4.3657 19.1806 -6.68826 -0.911583
lowerback -18.6313 2.58741 -0.725229
upperback -4.16134 3.51949 0.185867
thorax 5.87374 1.70659 1.42525
lowerneck -5.39263 -0.49578 0.52269
upperneck 6.94536 -0.646275 -0.800266
head 3.16718 -0.337198 -0.379423
rclavicle -1.91827e-014 -5.76476e-015
rhumerus -15.6897 8.81259 -81.7143
rradius 66.4032
rwrist -19.7915
rhand -17.3376 -30.3261
rfingers 7.12502
rthumb 8.90953 -60.118
lclavicle -1.91827e-014 -5.76476e-015
lhumerus -75.3765 26.5883 40.168
lradius 9.1456
lwrist -51.4832
lhand -10.7551 -17.2002
lfingers 7.12502
lthumb 15.2564 12.2172
rfemur -0.0407912 -4.84524 19.9542
rtibia 24.8666
rfoot -14.6129 18.2911
rtoes -15.6797
lfemur -50.8249 3.67825 -22.7334
ltibia 21.1811
lfoot -3.82616 0.946365
ltoes -20.3462
